<?xml version="1.0" encoding="UTF-8"?>
<svg id="Layer_1" data-name="Layer 1" xmlns="http://www.w3.org/2000/svg" viewBox="0 0 48 48">
  <defs>
    <style>
      .cls-1 {
        fill: #0c2c55;
      }

      .cls-2 {
        fill: #fff;
      }
    </style>
  </defs>
  <path class="cls-1" d="M35.79,20.08H13.3c-.5,0-.89.45-.89.95v12.39c0,.56.39.95.89.95h22.49c.55,0,.94-.39.94-.95v-12.39c0-.5-.39-.95-.94-.95ZM26.48,31.01c0,.33-.28.61-.61.61h-1.99l.89-.73c.06,0,.11-.17.11-.45v-3.12c0-.17,0-.33-.11-.45l-.89-.78h1.99c.33,0,.61.28.61.67v4.24Z"/>
  <path class="cls-1" d="M24.49,9.39L7.77,21.22c-.11.08-.05.24.08.24h33.45c.13,0,.18-.17.08-.24l-16.73-11.83s-.11-.03-.16,0Z"/>
  <path class="cls-1" d="M17.22,37.73c1.47.55.15,1.26-1.05,1.7-.38.14-2.23.55-1.13.66l21.24.04c.61-.1-.2-.44-.46-.57-3.12-1.63-6.73-1.89-11.76-2.49-2.85-.34-7.02-1.04-2.58-1.92.48-.1,3.46-.77,3.54-.81.11-.06.04-.24-.21-.26-.41-.05-3.41.06-4.08.09-1.93.08-7.48.73-8.6,1.3-.95.49.54,1.03,1.57,1.35.97.3,2.74.62,3.52.91Z"/>
  <path class="cls-2" d="M24.88,27.28v3.1c0,.28-.06.44-.11.44l-.89.72c-.39,0-.61-.28-.61-.61v-4.21c0-.22.06-.33.17-.5.11-.11.22-.17.39-.17h.06l.89.78c.11.11.11.28.11.44Z"/>
  <path class="cls-1" d="M24.77,26.78v4.15l-.89.75-.06.06c-.33,0-.61-.29-.61-.69v-4.44c0-.17.11-.35.22-.46.11-.11.22-.17.39-.17h.06l.89.81Z"/>
  <path class="cls-1" d="M24.88,27.24v3.22c0,.29-.06.46-.11.46l-.28-.57.05-3.05.23-.52c.11.11.11.29.11.46Z"/>
  <path class="cls-1" d="M25.59,43l-10.86-2.9c-.08-.02-.06-.14.02-.14h21.68c.08,0,.1.12.02.14l-10.86,2.9Z"/>
  <path class="cls-1" d="M24.1,3.85L7.47,19.64c-.63.59-.29,1.83.5,1.83L24.6,5.57l16.62,15.89c.79,0,1.13-1.24.5-1.83L25.1,3.85c-.3-.28-.71-.28-1.01,0Z"/>
</svg>